Coordinates
version=1
nRows=13
nColumns=22
inDegrees=yes

Units are S.I. units (second, meters, Newtons, ...)
If the header above contains a line with 'inDegrees', this indicates whether rotational values are in degrees (yes) or radians (no).

endheader
time	pelvis_tilt	pelvis_list	pelvis_rotation	pelvis_tx	pelvis_ty	pelvis_tz	hip_flexion_r	hip_adduction_r	hip_rotation_r	knee_angle_r	ankle_angle_r	subtalar_angle_r	hip_flexion_l	hip_adduction_l	hip_rotation_l	knee_angle_l	ankle_angle_l	subtalar_angle_l	lumbar_extension	lumbar_bending	lumbar_rotation
      0.01000000	      2.07486743	      0.01963143	      5.41599753	     -0.55976554	      1.08711311	      1.16902986	     -3.10285630	      1.53242064	     -8.25667251	    -10.18754303	     12.83906987	     -2.22786180	     -1.61518859	      0.41132074	      3.51833195	    -11.51902660	     12.31355013	     -2.98582347	     -2.84166970	     -1.04069787	     -4.60887174
      0.02000000	      2.08723861	      0.04161332	      5.49354241	     -0.55976544	      1.08711762	      1.16871964	     -3.09773911	      1.50001110	     -8.32521762	    -10.24010912	     12.86879427	     -2.23499791	     -1.62763718	      0.44177473	      3.57269786	    -11.51409451	     12.28931947	     -2.99550454	     -2.85107743	     -1.05368723	     -4.59677666
      0.03000000	      2.09691141	      0.06681047	      5.58735259	     -0.55975719	      1.08711493	      1.16835054	     -3.09268217	      1.46345879	     -8.39545761	    -10.29124622	     12.89691129	     -2.24013343	     -1.64546316	      0.47930447	      3.67492430	    -11.49575940	     12.28628736	     -3.00696739	     -2.85577096	     -1.06898731	     -4.58122941
      0.04000000	      2.10936604	      0.09342878	      5.69268630	     -0.55975544	      1.08711650	      1.16793317	     -3.08900830	      1.42374665	     -8.47914609	    -10.34692335	     12.92658084	     -2.24470810	     -1.66225981	      0.51932001	      3.78165739	    -11.48268306	     12.27639754	     -3.01859018	     -2.86462096	     -1.08245771	     -4.56587021
      0.05000000	      2.12371393	      0.12296881	      5.80736355	     -0.55972522	      1.08711996	      1.16749408	     -3.09101432	      1.38186675	     -8.57015631	    -10.40170121	     12.95802300	     -2.24807427	     -1.68227959	      0.56271121	      3.90188220	    -11.47149306	     12.26578427	     -3.03306798	     -2.86846244	     -1.10119690	     -4.55828614
      0.06000000	      2.13800363	      0.15040429	      5.92026664	     -0.55970423	      1.08712438	      1.16703938	     -3.09282075	      1.34103000	     -8.65590371	    -10.45476648	     12.98566742	     -2.25039267	     -1.70218782	      0.60473611	      4.01870205	    -11.45903330	     12.25771798	     -3.04756725	     -2.87560974	     -1.11428674	     -4.54543270
      0.07000000	      2.15325614	      0.17835961	      6.03159549	     -0.55968804	      1.08713208	      1.16657699	     -3.09638215	      1.29874454	     -8.74076612	    -10.50660768	     13.01336562	     -2.25210572	     -1.72236865	      0.64778986	      4.13722699	    -11.44807119	     12.24962070	     -3.06233650	     -2.88499102	     -1.12763146	     -4.53314078
      0.08000000	      2.16969294	      0.20462597	      6.13597445	     -0.55966802	      1.08714114	      1.16612744	     -3.10142933	      1.25861362	     -8.81653645	    -10.55709103	     13.03890740	     -2.25313940	     -1.74247604	      0.68866763	      4.24628302	    -11.44135337	     12.24115189	     -3.07690285	     -2.89487048	     -1.14001813	     -4.51851340
      0.09000000	      2.18607596	      0.23010674	      6.23121191	     -0.55965990	      1.08715199	      1.16568656	     -3.10424495	      1.21834211	     -8.88375803	    -10.60912132	     13.06384364	     -2.25416362	     -1.76252889	      0.72913363	      4.34598551	    -11.43414018	     12.23394818	     -3.09076086	     -2.90794998	     -1.15045002	     -4.49989236
      0.10000000	      2.20306574	      0.25466269	      6.31712749	     -0.55965693	      1.08716404	      1.16526453	     -3.10560364	      1.17888528	     -8.94156985	    -10.66344953	     13.08820664	     -2.25539370	     -1.78224236	      0.76821493	      4.43519494	    -11.42961499	     12.22582372	     -3.10372212	     -2.92289511	     -1.16138584	     -4.47759999
      0.11000000	      2.21889232	      0.26641960	      6.38175737	     -0.55967714	      1.08717561	      1.16487356	     -3.10464856	      1.15348264	     -8.95882835	    -10.71131109	     13.09681410	     -2.25680482	     -1.78898799	      0.79451701	      4.49280740	    -11.44541386	     12.21985065	     -3.10832842	     -2.93983906	     -1.15652095	     -4.43227741
      0.12000000	      2.23491909	      0.30515965	      6.46861961	     -0.55966505	      1.08718846	      1.16444973	     -3.10078164	      1.09655283	     -9.04273196	    -10.77887199	     13.14184334	     -2.26002923	     -1.82220426	      0.84856086	      4.59080368	    -11.41661573	     12.20833577	     -3.12395283	     -2.95705321	     -1.18654632	     -4.43104982
      0.13000000	      2.25048844	      0.31533777	      6.52816632	     -0.55969647	      1.08720114	      1.16407266	     -3.09647388	      1.07269689	     -9.05483554	    -10.83059181	     13.14694376	     -2.26101658	     -1.82929932	      0.87291569	      4.64336447	    -11.43064121	     12.20031028	     -3.12889801	     -2.97878695	     -1.18178828	     -4.39342722
